<svg xmlns="http://www.w3.org/2000/svg" xmlns:xlink="http://www.w3.org/1999/xlink" width="256" height="256" viewBox="0 0 256 256"><defs><clipPath id="b"><rect width="256" height="256"/></clipPath></defs><g id="a" clip-path="url(#b)"><path d="M173.512,0a32,32,0,0,1,27.722,16.016l45.55,79a32,32,0,0,1,0,31.968l-45.55,79A32,32,0,0,1,173.512,222H82.488a32,32,0,0,1-27.722-16.016l-45.549-79a32,32,0,0,1,0-31.968l45.55-79A32,32,0,0,1,82.488,0Z" transform="translate(239) rotate(90)" fill="#29e"/><path d="M66.133,24.094a16,16,0,0,1,27.735,0L146.2,115.019A16,16,0,0,1,132.331,139H27.669A16,16,0,0,1,13.8,115.019Z" transform="translate(220.75 48) rotate(90)" fill="#fff"/></g></svg>