<svg xmlns="http://www.w3.org/2000/svg" xmlns:xlink="http://www.w3.org/1999/xlink" width="24" height="24" viewBox="0 0 24 24"><defs><clipPath id="b"><rect width="24" height="24"/></clipPath></defs><g id="a" clip-path="url(#b)"><path d="M-90,20a10.011,10.011,0,0,1-10-10A10.011,10.011,0,0,1-90,0,10.011,10.011,0,0,1-80,10,10.011,10.011,0,0,1-90,20Zm0-6.25A1.252,1.252,0,0,0-91.25,15,1.252,1.252,0,0,0-90,16.25,1.252,1.252,0,0,0-88.75,15,1.252,1.252,0,0,0-90,13.75Zm0-8.5c1.806,0,2,1.049,2,1.5A2.4,2.4,0,0,1-89.18,8.7,4.233,4.233,0,0,0-91,12.5h2a3.286,3.286,0,0,1,1.542-3A3.022,3.022,0,0,0-86,6.75a2.684,2.684,0,0,0-.875-2.156A4.792,4.792,0,0,0-90,3.75a4.791,4.791,0,0,0-3.125.844A2.684,2.684,0,0,0-94,6.75h2C-92,6.3-91.8,5.251-90,5.251Z" transform="translate(102 2)" fill="#8be"/><path d="M73.453,16.664" transform="translate(-60)" fill="none" stroke="#707070" stroke-width="1"/></g></svg>