<svg xmlns="http://www.w3.org/2000/svg" xmlns:xlink="http://www.w3.org/1999/xlink" width="24" height="24" viewBox="0 0 24 24"><defs><clipPath id="b"><rect width="24" height="24"/></clipPath></defs><g id="a" clip-path="url(#b)"><path d="M-40,20A10.012,10.012,0,0,1-50,10,10.012,10.012,0,0,1-40,0,10.011,10.011,0,0,1-30,10,10.011,10.011,0,0,1-40,20Zm0-12.5a1.252,1.252,0,0,0-1.25,1.25V15A1.252,1.252,0,0,0-40,16.25,1.252,1.252,0,0,0-38.75,15V8.751A1.252,1.252,0,0,0-40,7.5Zm0-3.75A1.252,1.252,0,0,0-41.251,5,1.252,1.252,0,0,0-40,6.25,1.252,1.252,0,0,0-38.75,5,1.252,1.252,0,0,0-40,3.75Z" transform="translate(52 2)" fill="#09f"/></g></svg>