<svg xmlns="http://www.w3.org/2000/svg" xmlns:xlink="http://www.w3.org/1999/xlink" width="48" height="48" viewBox="0 0 48 48"><defs><clipPath id="b"><rect width="48" height="48"/></clipPath></defs><g id="a" clip-path="url(#b)"><path d="M-176-52a23.842,23.842,0,0,1-16.97-7.029A23.842,23.842,0,0,1-200-76,23.844,23.844,0,0,1-192.97-92.97,23.842,23.842,0,0,1-176-100,23.843,23.843,0,0,1-159.03-92.97,23.843,23.843,0,0,1-152-76a23.842,23.842,0,0,1-7.029,16.97A23.844,23.844,0,0,1-176-52Zm0-46a22.025,22.025,0,0,0-22,22,22.025,22.025,0,0,0,22,22,22.025,22.025,0,0,0,22-22A22.025,22.025,0,0,0-176-98Z" transform="translate(200 100)" fill="#fa0"/><path d="M104.512,163.837a2.784,2.784,0,0,1-1.687,2.79h-1.778a3.186,3.186,0,0,1-1.561-2.79L98.5,147.791A2.8,2.8,0,0,1,101.3,145h1.4a2.8,2.8,0,0,1,2.8,2.791ZM102,169.419a2.791,2.791,0,1,1-2.8,2.791A2.8,2.8,0,0,1,102,169.419Z" transform="translate(-78 -136)" fill="#fa0"/></g></svg>