<svg xmlns="http://www.w3.org/2000/svg" xmlns:xlink="http://www.w3.org/1999/xlink" width="48" height="48" viewBox="0 0 48 48"><defs><clipPath id="b"><rect width="48" height="48"/></clipPath></defs><g id="a" clip-path="url(#b)"><path d="M-176-52a23.842,23.842,0,0,1-16.97-7.029A23.842,23.842,0,0,1-200-76,23.844,23.844,0,0,1-192.97-92.97,23.842,23.842,0,0,1-176-100,23.843,23.843,0,0,1-159.03-92.97,23.843,23.843,0,0,1-152-76a23.842,23.842,0,0,1-7.029,16.97A23.844,23.844,0,0,1-176-52Zm0-46a22.025,22.025,0,0,0-22,22,22.025,22.025,0,0,0,22,22,22.025,22.025,0,0,0,22-22A22.025,22.025,0,0,0-176-98Z" transform="translate(200 100)" fill="#8be"/><circle cx="24" cy="24" r="24" transform="translate(-46 44)" fill="#8be"/><path d="M108.915,292.243a8.752,8.752,0,0,1-1.245,1.57,23.082,23.082,0,0,1-1.71,1.552q-.651.54-1.143,1a6.391,6.391,0,0,0-.818.921,3.567,3.567,0,0,0-.493.966,3.724,3.724,0,0,0-.167,1.161,5.454,5.454,0,0,0,.224,1.521c.024.048-2.125.75-2.125.75l-2-.375-.656-.641c0-.109-.1-.249-.172-.651a6.947,6.947,0,0,1,.065-2.7,5.437,5.437,0,0,1,.5-1.329,6.3,6.3,0,0,1,.836-1.189,10.762,10.762,0,0,1,1.171-1.124q.706-.595,1.236-1.105a7.86,7.86,0,0,0,.9-1.023,3.954,3.954,0,0,0,.557-1.06,3.769,3.769,0,0,0,.186-1.217,2.76,2.76,0,0,0-.2-1.069,2.4,2.4,0,0,0-.585-.845,2.789,2.789,0,0,0-.929-.558,3.471,3.471,0,0,0-1.217-.2,8.318,8.318,0,0,0-3.011.6c-1.041.4-.687.359-1.617,1.178l-2.481-.43-.447-2.123,1.006-1.9a17.017,17.017,0,0,1,3.707-1.771,14.214,14.214,0,0,1,3.494-.428,12.928,12.928,0,0,1,3.215.381,7.4,7.4,0,0,1,2.593,1.2,5.643,5.643,0,0,1,1.728,2.091,6.9,6.9,0,0,1,.623,3.057,7.547,7.547,0,0,1-.26,2.054A6.923,6.923,0,0,1,108.915,292.243Zm-7.3,11.872a3.5,3.5,0,0,1,2.435.873,2.775,2.775,0,0,1,.966,2.175,2.878,2.878,0,0,1-.948,2.212,3.875,3.875,0,0,1-4.925-.019,2.917,2.917,0,0,1-.985-2.193,2.788,2.788,0,0,1,.985-2.175A3.589,3.589,0,0,1,101.611,304.115Z" transform="translate(-78 -272)" fill="#8be"/></g></svg>