<svg xmlns="http://www.w3.org/2000/svg" xmlns:xlink="http://www.w3.org/1999/xlink" width="48" height="48" viewBox="0 0 48 48"><defs><clipPath id="b"><rect width="48" height="48"/></clipPath></defs><g id="a" clip-path="url(#b)"><circle cx="24" cy="24" r="24" fill="#f30"/><path d="M91.6,82.4l.8-.8a2.145,2.145,0,0,1,3.017-.184l17.47,17.976a2.145,2.145,0,0,1-.183,3.017l-.8.8a2.145,2.145,0,0,1-3.017.183L91.417,85.417A2.145,2.145,0,0,1,91.6,82.4Z" transform="translate(-78 -68)" fill="#fff"/><path d="M112.7,82.4l-.8-.8a2.145,2.145,0,0,0-3.017-.184L91.417,99.392a2.145,2.145,0,0,0,.183,3.017l.8.8a2.145,2.145,0,0,0,3.017.183l17.47-17.976A2.145,2.145,0,0,0,112.7,82.4Z" transform="translate(-78 -68)" fill="#fff"/></g></svg>