<svg xmlns="http://www.w3.org/2000/svg" xmlns:xlink="http://www.w3.org/1999/xlink" width="48" height="48" viewBox="0 0 48 48"><defs><clipPath id="b"><rect width="48" height="48"/></clipPath></defs><g id="a" clip-path="url(#b)"><path d="M-176-52a23.842,23.842,0,0,1-16.97-7.029A23.842,23.842,0,0,1-200-76,23.844,23.844,0,0,1-192.97-92.97,23.842,23.842,0,0,1-176-100,23.843,23.843,0,0,1-159.03-92.97,23.843,23.843,0,0,1-152-76a23.842,23.842,0,0,1-7.029,16.97A23.844,23.844,0,0,1-176-52Zm0-46a22.025,22.025,0,0,0-22,22,22.025,22.025,0,0,0,22,22,22.025,22.025,0,0,0,22-22A22.025,22.025,0,0,0-176-98Z" transform="translate(200 100)" fill="#f30"/><path d="M91.6,82.4l.8-.8a2.145,2.145,0,0,1,3.017-.184l17.47,17.976a2.145,2.145,0,0,1-.183,3.017l-.8.8a2.145,2.145,0,0,1-3.017.183L91.417,85.417A2.145,2.145,0,0,1,91.6,82.4Z" transform="translate(-78 -68)" fill="#f30"/><path d="M112.7,82.4l-.8-.8a2.145,2.145,0,0,0-3.017-.184L91.417,99.392a2.145,2.145,0,0,0,.183,3.017l.8.8a2.145,2.145,0,0,0,3.017.183l17.47-17.976A2.145,2.145,0,0,0,112.7,82.4Z" transform="translate(-78 -68)" fill="#f30"/></g></svg>