<svg xmlns="http://www.w3.org/2000/svg" xmlns:xlink="http://www.w3.org/1999/xlink" width="48" height="48" viewBox="0 0 48 48"><defs><clipPath id="b"><rect width="48" height="48"/></clipPath></defs><g id="a" clip-path="url(#b)"><path d="M-176-52a23.842,23.842,0,0,1-16.97-7.029A23.842,23.842,0,0,1-200-76,23.844,23.844,0,0,1-192.97-92.97,23.842,23.842,0,0,1-176-100,23.843,23.843,0,0,1-159.03-92.97,23.843,23.843,0,0,1-152-76a23.842,23.842,0,0,1-7.029,16.97A23.844,23.844,0,0,1-176-52Zm0-46a22.025,22.025,0,0,0-22,22,22.025,22.025,0,0,0,22,22,22.025,22.025,0,0,0,22-22A22.025,22.025,0,0,0-176-98Z" transform="translate(200 100)" fill="#09f"/><path d="M102,221.5h0a3,3,0,0,1,3,3v16a3,3,0,0,1-3,3h0a3,3,0,0,1-3-3v-16A3,3,0,0,1,102,221.5Z" transform="translate(-78 -204)" fill="#09f"/><circle cx="3" cy="3" r="3" transform="translate(21 8.5)" fill="#09f"/></g></svg>