<svg xmlns="http://www.w3.org/2000/svg" xmlns:xlink="http://www.w3.org/1999/xlink" width="48" height="48" viewBox="0 0 48 48"><defs><clipPath id="b"><rect width="48" height="48"/></clipPath></defs><g id="a" clip-path="url(#b)"><circle cx="24" cy="24" r="24" fill="#6c3"/><path d="M8.987,22.949l.6-.8a1.752,1.752,0,0,1,2.7-.233l8.767,8.639a1.752,1.752,0,0,1-.233,2.7l-.8.6a2.238,2.238,0,0,1-2.857-.19L9.177,25.806A2.238,2.238,0,0,1,8.987,22.949Z" fill="#fff"/><path d="M38.547,15.467l-.99-.81a1.944,1.944,0,0,0-2.881.09L17.748,31.556a1.752,1.752,0,0,0,.233,2.7l.8.6a1.972,1.972,0,0,0,2.662-.035L38.187,18.167A2.052,2.052,0,0,0,38.547,15.467Z" fill="#fff"/></g></svg>