<svg xmlns="http://www.w3.org/2000/svg" xmlns:xlink="http://www.w3.org/1999/xlink" width="24" height="24" viewBox="0 0 24 24"><defs><clipPath id="b"><rect width="24" height="24"/></clipPath></defs><g id="a" clip-path="url(#b)"><path d="M-200-100a10.011,10.011,0,0,1-10-10,10.011,10.011,0,0,1,10-10,10.011,10.011,0,0,1,10,10A10.011,10.011,0,0,1-200-100Zm0-9a6,6,0,0,0-5.81,4.5A7.925,7.925,0,0,0-200-102a7.929,7.929,0,0,0,5.811-2.5A6,6,0,0,0-200-109Zm0-7a2.5,2.5,0,0,0-2.5,2.5A2.5,2.5,0,0,0-200-111a2.5,2.5,0,0,0,2.5-2.5A2.5,2.5,0,0,0-200-116Z" transform="translate(212 122)" fill="#666"/></g></svg>