<svg xmlns="http://www.w3.org/2000/svg" xmlns:xlink="http://www.w3.org/1999/xlink" width="24" height="24" viewBox="0 0 24 24"><defs><clipPath id="b"><rect width="24" height="24"/></clipPath></defs><g id="a" clip-path="url(#b)"><path d="M-163-102h-16a1,1,0,0,1-1-1v-16a1,1,0,0,1,1-1h16a1,1,0,0,1,1,1v16A1,1,0,0,1-163-102Zm-8-8a6.007,6.007,0,0,0-6,6h12a5.963,5.963,0,0,0-1.759-4.24A5.956,5.956,0,0,0-171-110Zm0-7a2.5,2.5,0,0,0-2.5,2.5A2.5,2.5,0,0,0-171-112a2.5,2.5,0,0,0,2.5-2.5A2.5,2.5,0,0,0-171-117Z" transform="translate(183 123)" fill="#666"/></g></svg>