<svg xmlns="http://www.w3.org/2000/svg" xmlns:xlink="http://www.w3.org/1999/xlink" width="24" height="24" viewBox="0 0 24 24"><defs><clipPath id="b"><rect width="24" height="24"/></clipPath></defs><g id="a" clip-path="url(#b)"><path d="M-233.329-226.843l1.5-1.5A4.954,4.954,0,0,0-230-228a5.006,5.006,0,0,0,5-5h-3l4-4,4,4h-3a7.008,7.008,0,0,1-7,7A7,7,0,0,1-233.329-226.843ZM-240-233h3a7.008,7.008,0,0,1,7-7,6.992,6.992,0,0,1,3.327.843l-1.5,1.5A4.949,4.949,0,0,0-230-238a5.005,5.005,0,0,0-5,5h3l-4,4Z" transform="translate(242 245)" fill="#666"/></g></svg>