<svg xmlns="http://www.w3.org/2000/svg" xmlns:xlink="http://www.w3.org/1999/xlink" width="24" height="24" viewBox="0 0 24 24"><defs><clipPath id="b"><rect width="24" height="24"/></clipPath></defs><g id="a" clip-path="url(#b)"><path d="M-298-162a1,1,0,0,1-1-1v-13h12v13a1,1,0,0,1-1,1Zm5-5.585,2.12,2.12,1.415-1.415L-291.586-169l2.121-2.121-1.415-1.415L-293-170.415l-2.12-2.121-1.415,1.415,2.121,2.121-2.121,2.121,1.415,1.415,2.12-2.12h0ZM-300-177v-2h4l1-1h4l1,1h4v2Z" transform="translate(305 183)" fill="#666"/></g></svg>