<svg xmlns="http://www.w3.org/2000/svg" xmlns:xlink="http://www.w3.org/1999/xlink" width="24" height="24" viewBox="0 0 24 24"><defs><clipPath id="b"><rect width="24" height="24"/></clipPath></defs><g id="a" clip-path="url(#b)"><path d="M-190,20a10.011,10.011,0,0,1-10-10A10.011,10.011,0,0,1-190,0a10.011,10.011,0,0,1,10,10A10.011,10.011,0,0,1-190,20Zm-4.75-11.25A1.252,1.252,0,0,0-196,10a1.252,1.252,0,0,0,1.25,1.25h3.5v3.5A1.251,1.251,0,0,0-190,16a1.252,1.252,0,0,0,1.25-1.25v-3.5h3.5A1.252,1.252,0,0,0-184,10a1.252,1.252,0,0,0-1.25-1.25h-3.5V5.25A1.252,1.252,0,0,0-190,4a1.251,1.251,0,0,0-1.249,1.25v3.5Z" transform="translate(153.421 139.279) rotate(45)" fill="#f30"/></g></svg>