<svg xmlns="http://www.w3.org/2000/svg" xmlns:xlink="http://www.w3.org/1999/xlink" width="24" height="24" viewBox="0 0 24 24"><defs><clipPath id="b"><rect width="24" height="24"/></clipPath></defs><g id="a" clip-path="url(#b)"><path d="M-50-40A10.012,10.012,0,0,1-60-50,10.011,10.011,0,0,1-50-60,10.012,10.012,0,0,1-40-50,10.012,10.012,0,0,1-50-40Zm-1-6v2h2v-2Zm0-4v2h1a4.006,4.006,0,0,0,4-4,4,4,0,0,0-4-4,4,4,0,0,0-4,4h2a2,2,0,0,1,2-2,2,2,0,0,1,2,2,2,2,0,0,1-2,2Z" transform="translate(62 62)" fill="#8be"/></g></svg>