<svg xmlns="http://www.w3.org/2000/svg" xmlns:xlink="http://www.w3.org/1999/xlink" width="24" height="24" viewBox="0 0 24 24"><defs><clipPath id="b"><rect width="24" height="24"/></clipPath></defs><g id="a" clip-path="url(#b)"><path d="M-324.361-224.639l1.414-1.413A6.952,6.952,0,0,0-318-224a7.008,7.008,0,0,0,7-7,7.008,7.008,0,0,0-7-7,7.008,7.008,0,0,0-7,7h-2a9.011,9.011,0,0,1,9-9,9.01,9.01,0,0,1,9,9,9.01,9.01,0,0,1-9,9A8.939,8.939,0,0,1-324.361-224.639Zm5.654-5.654-.292-.292V-236h2v4.586l3.243,3.242-1.415,1.415ZM-330-231h8l-4,4Z" transform="translate(331 243)" fill="#666"/></g></svg>