<svg xmlns="http://www.w3.org/2000/svg" xmlns:xlink="http://www.w3.org/1999/xlink" width="24" height="24" viewBox="0 0 24 24"><defs><clipPath id="b"><rect width="24" height="24"/></clipPath></defs><g id="a" clip-path="url(#b)"><path d="M-180-290a10.011,10.011,0,0,1,10-10,10.011,10.011,0,0,1,10,10,10.011,10.011,0,0,1-10,10A10.011,10.011,0,0,1-180-290Zm10,7.975A13.958,13.958,0,0,0-168.082-286h-3.835A13.95,13.95,0,0,0-170-282.025Zm-2.609-.411A15.789,15.789,0,0,1-174-286h-2.928A8.045,8.045,0,0,0-172.608-282.436Zm5.216,0A8.044,8.044,0,0,0-163.074-286H-166A15.8,15.8,0,0,1-167.392-282.436Zm5.139-5.564a7.986,7.986,0,0,0,.253-2,7.986,7.986,0,0,0-.253-2h-3.369a16.254,16.254,0,0,1,.123,2,16.256,16.256,0,0,1-.123,2Zm-5.389,0a14.059,14.059,0,0,0,.142-2,14.063,14.063,0,0,0-.143-2h-4.714a14.061,14.061,0,0,0-.143,2,14.057,14.057,0,0,0,.142,2Zm-6.734,0a16.272,16.272,0,0,1-.123-2,16.276,16.276,0,0,1,.123-2h-3.371a7.986,7.986,0,0,0-.253,2,7.986,7.986,0,0,0,.253,2Zm11.3-6a8.045,8.045,0,0,0-4.317-3.563A15.8,15.8,0,0,1-166-294Zm-5.008,0A13.954,13.954,0,0,0-170-297.977,13.947,13.947,0,0,0-171.917-294ZM-174-294a15.8,15.8,0,0,1,1.39-3.563A8.044,8.044,0,0,0-176.926-294Z" transform="translate(182 302)" fill="#666"/></g></svg>