<svg xmlns="http://www.w3.org/2000/svg" xmlns:xlink="http://www.w3.org/1999/xlink" width="24" height="24" viewBox="0 0 24 24"><defs><clipPath id="b"><rect width="24" height="24"/></clipPath></defs><g id="a" clip-path="url(#b)"><path d="M-208,12A10.011,10.011,0,0,1-198,2V4a8.009,8.009,0,0,0-8,8,8.008,8.008,0,0,0,8,8,8.009,8.009,0,0,0,8-8h2a10.011,10.011,0,0,1-10,10A10.011,10.011,0,0,1-208,12Z" transform="translate(210)" fill="#fff" opacity="0.25"/><path d="M-192,12a8.01,8.01,0,0,0-8-8h0V2h0a10.012,10.012,0,0,1,10,10Z" transform="translate(212)" fill="#fff"/></g></svg>