<svg xmlns="http://www.w3.org/2000/svg" xmlns:xlink="http://www.w3.org/1999/xlink" width="24" height="24" viewBox="0 0 24 24"><defs><clipPath id="b"><rect width="24" height="24"/></clipPath></defs><g id="a" clip-path="url(#b)"><path d="M-239-281a1,1,0,0,1-1-1v-10a1,1,0,0,1,1-1h1v-2a5.006,5.006,0,0,1,5-5,5.005,5.005,0,0,1,5,5v2h1a1,1,0,0,1,1,1v10a1,1,0,0,1-1,1Zm4-6a2,2,0,0,0,2,2,2,2,0,0,0,2-2,2,2,0,0,0-2-2A2,2,0,0,0-235-287Zm5-6v-2a3,3,0,0,0-3-3,3,3,0,0,0-3,3v2Z" transform="translate(245 302)" fill="#666"/></g></svg>