<svg xmlns="http://www.w3.org/2000/svg" xmlns:xlink="http://www.w3.org/1999/xlink" width="24" height="24" viewBox="0 0 24 24"><defs><clipPath id="b"><rect width="24" height="24"/></clipPath></defs><g id="a" clip-path="url(#b)"><path d="M-300-231a8.936,8.936,0,0,1,2.653-6.375l1.414,1.413A6.948,6.948,0,0,0-298-231a7.008,7.008,0,0,0,7,7,7.008,7.008,0,0,0,7-7,6.947,6.947,0,0,0-2.068-4.962l1.414-1.414A8.934,8.934,0,0,1-282-231a9.01,9.01,0,0,1-9,9A9.01,9.01,0,0,1-300-231Zm8,1v-10h2v10Z" transform="translate(303.001 243)" fill="#666"/></g></svg>