<svg xmlns="http://www.w3.org/2000/svg" xmlns:xlink="http://www.w3.org/1999/xlink" width="24" height="24" viewBox="0 0 24 24"><defs><clipPath id="b"><rect width="24" height="24"/></clipPath></defs><g id="a" clip-path="url(#b)"><path d="M-288.687-277.374h0l-5.656-5.655a8.011,8.011,0,0,1,0-11.314,7.95,7.95,0,0,1,5.657-2.343,7.95,7.95,0,0,1,5.657,2.343,8.009,8.009,0,0,1,0,11.314l-5.656,5.655Zm.036-13.777a2.482,2.482,0,0,0-1.767.732,2.482,2.482,0,0,0-.732,1.767,2.484,2.484,0,0,0,.732,1.768,2.483,2.483,0,0,0,1.768.733,2.486,2.486,0,0,0,1.768-.733,2.484,2.484,0,0,0,.732-1.768,2.482,2.482,0,0,0-.732-1.767A2.484,2.484,0,0,0-288.651-291.151Z" transform="translate(300.682 298.686)" fill="#666"/></g></svg>