<svg xmlns="http://www.w3.org/2000/svg" xmlns:xlink="http://www.w3.org/1999/xlink" width="24" height="24" viewBox="0 0 24 24"><defs><clipPath id="b"><rect width="24" height="24"/></clipPath></defs><g id="a" clip-path="url(#b)"><path d="M-210,10A10.011,10.011,0,0,1-200,0a10.011,10.011,0,0,1,10,10,10.011,10.011,0,0,1-10,10A10.011,10.011,0,0,1-210,10Zm2,0a8.009,8.009,0,0,0,8,8,8.01,8.01,0,0,0,8-8,8.01,8.01,0,0,0-8-8A8.009,8.009,0,0,0-208,10Zm7.293.707-.293-.292V5h2V9.586l3.243,3.243-1.415,1.415Z" transform="translate(212 2)" fill="#666"/></g></svg>