<svg xmlns="http://www.w3.org/2000/svg" xmlns:xlink="http://www.w3.org/1999/xlink" width="24" height="24" viewBox="0 0 24 24"><defs><clipPath id="b"><rect width="24" height="24"/></clipPath></defs><g id="a" clip-path="url(#b)"><path d="M-258.81-287.4A6.963,6.963,0,0,1-263-286a7.008,7.008,0,0,1-7-7,7.007,7.007,0,0,1,7-7,7.007,7.007,0,0,1,7,7,6.964,6.964,0,0,1-1.4,4.19l4.931,4.931-1.414,1.414ZM-268-293a5.006,5.006,0,0,0,5,5,5.006,5.006,0,0,0,5-5,5.005,5.005,0,0,0-5-5A5.005,5.005,0,0,0-268-293Z" transform="translate(273 303)" fill="#666"/></g></svg>