<svg xmlns="http://www.w3.org/2000/svg" xmlns:xlink="http://www.w3.org/1999/xlink" width="24" height="24" viewBox="0 0 24 24"><defs><clipPath id="b"><rect width="24" height="24"/></clipPath></defs><g id="a" clip-path="url(#b)"><path d="M-140,20a10.011,10.011,0,0,1-10-10A10.011,10.011,0,0,1-140,0a10.012,10.012,0,0,1,10,10A10.012,10.012,0,0,1-140,20Zm-4-15a1,1,0,0,0-1,1v6a1,1,0,0,0,1,1h10a1,1,0,0,0,1-1,1,1,0,0,0-1-1h-9V6A1,1,0,0,0-144,5Z" transform="translate(103.924 -94.066) rotate(-45)" fill="#6c3"/></g></svg>