<svg xmlns="http://www.w3.org/2000/svg" xmlns:xlink="http://www.w3.org/1999/xlink" width="24" height="24" viewBox="0 0 24 24"><defs><clipPath id="b"><rect width="24" height="24"/></clipPath></defs><g id="a" clip-path="url(#b)"><path d="M10,20A10,10,0,1,1,20,10,10.011,10.011,0,0,1,10,20Zm0-6.25A1.25,1.25,0,1,0,11.25,15,1.252,1.252,0,0,0,10,13.75Zm0-10a1.5,1.5,0,0,0-1.5,1.5,1.523,1.523,0,0,0,.019.241L9,11.5a1,1,0,0,0,2,0l.481-6.009A1.5,1.5,0,0,0,10,3.75Z" transform="translate(2 2)" fill="#fa0"/></g></svg>