<svg xmlns="http://www.w3.org/2000/svg" width="222" height="247.18" viewBox="0 0 222 247.18"><g transform="translate(-17 -4.41)"><path d="M239,177c0,8.25-5.982,18.378-13.126,22.507l-84.817,48.986c-7.143,4.129-18.865,4.129-26.008,0l-84.9-48.986C23,195.378,17,185.25,17,177V79c0-8.25,5.983-18.378,13.126-22.507L114.943,7.507c7.143-4.129,18.866-4.129,26.008,0l84.9,48.986C233,60.622,239,70.75,239,79Z" fill="#3fa9f5"/><path d="M84,60.085c0-5.5,4.137-7.75,8.9-5l117.2,67.6c4.764,2.75,4.823,7.25.063,10L92.87,200.275c-4.763,2.75-8.87.5-8.87-5Z" fill="#fff"/></g></svg>