<?xml version="1.0" encoding="utf-8"?>
<!-- Generator: Adobe Illustrator 16.0.3, SVG Export Plug-In . SVG Version: 6.00 Build 0)  -->
<!DOCTYPE svg PUBLIC "-//W3C//DTD SVG 1.1//EN" "http://www.w3.org/Graphics/SVG/1.1/DTD/svg11.dtd">
<svg version="1.1" id="logo" xmlns="http://www.w3.org/2000/svg" xmlns:xlink="http://www.w3.org/1999/xlink" x="0px" y="0px"
	 width="256px" height="256px" viewBox="0 0 256 256" enable-background="new 0 0 256 256" xml:space="preserve">
<g>
	<g>
		<path fill="#3FA9F5" d="M239,177c0,8.25-5.982,18.378-13.126,22.507l-84.817,48.986c-7.143,4.129-18.865,4.129-26.008,0
			l-84.905-48.986C23.001,195.378,17,185.25,17,177V79c0-8.25,5.983-18.378,13.126-22.507l84.817-48.986
			c7.143-4.129,18.866-4.129,26.008,0l84.904,48.986C232.999,60.622,239,70.75,239,79V177z"/>
	</g>
	<g>
		<path fill="#FFFFFF" d="M84,60.085c0-5.5,4.137-7.75,8.9-5l117.198,67.595c4.764,2.75,4.823,7.25,0.063,10L92.87,200.275
			c-4.763,2.75-8.87,0.5-8.87-5V60.085z"/>
	</g>
</g>
</svg>
